<?xml version="1.0" standalone="no"?>
<!DOCTYPE svg PUBLIC "-//W3C//DTD SVG 20010904//EN"
 "http://www.w3.org/TR/2001/REC-SVG-20010904/DTD/svg10.dtd">
<svg version="1.0" xmlns="http://www.w3.org/2000/svg"
 width="512.000000pt" height="512.000000pt" viewBox="0 0 512.000000 512.000000"
 preserveAspectRatio="xMidYMid meet">
<metadata>
Created by potrace 1.11, written by Peter Selinger 2001-2013
</metadata>
<g transform="translate(0.000000,512.000000) scale(0.100000,-0.100000)"
fill="#000000" stroke="none">
<path d="M2493 4083 c-7 -3 -13 -12 -13 -21 0 -13 -3 -13 -16 4 -10 12 -14 13
-11 4 3 -10 -3 -15 -19 -15 -13 0 -24 5 -24 10 0 6 -7 1 -15 -9 -11 -14 -15
-16 -15 -5 0 9 -3 10 -8 3 -4 -6 -15 -10 -25 -8 -9 1 -15 -2 -11 -7 5 -8 -3
-11 -22 -8 -4 0 -11 -5 -15 -13 -7 -10 -9 -10 -9 0 0 6 -5 12 -11 12 -5 0 -8
-3 -6 -7 6 -10 -19 -34 -27 -26 -3 4 -13 -2 -22 -13 -8 -10 -12 -12 -8 -4 7
12 5 13 -8 3 -8 -7 -18 -10 -22 -6 -4 4 -4 0 0 -10 5 -13 1 -17 -15 -17 -13 0
-25 -9 -31 -22 -5 -13 -9 -17 -9 -9 -1 17 -16 5 -16 -12 -1 -7 -6 -11 -13 -9
-11 2 -16 -11 -13 -31 1 -5 -3 -6 -9 -2 -5 3 -10 1 -10 -5 0 -6 -4 -8 -10 -5
-5 3 -10 0 -10 -7 0 -7 -9 -19 -21 -26 -17 -11 -20 -11 -13 0 6 10 5 10 -7 2
-8 -6 -28 -11 -46 -10 -17 0 -31 -3 -30 -9 1 -5 -6 -9 -15 -9 -10 1 -18 -3
-18 -10 0 -6 -5 -4 -10 4 -5 8 -10 10 -10 4 0 -6 -11 -11 -25 -11 -14 0 -33
-9 -41 -19 -9 -11 -12 -13 -9 -6 6 11 3 11 -16 0 -13 -7 -27 -17 -31 -23 -5
-6 -8 -4 -8 5 -1 13 -2 13 -13 0 -7 -8 -18 -15 -24 -16 -49 -4 -49 -4 -33 -15
12 -8 12 -10 -5 -8 -36 3 -46 -1 -39 -13 5 -7 3 -8 -5 -4 -7 5 -19 0 -27 -10
-9 -11 -13 -13 -9 -7 4 9 1 11 -9 7 -9 -3 -16 -11 -16 -16 0 -6 -9 -8 -21 -5
-17 5 -18 3 -7 -11 7 -9 8 -14 4 -10 -5 4 -16 2 -24 -5 -13 -10 -14 -9 -7 3 7
12 6 13 -7 3 -8 -7 -19 -9 -24 -5 -4 4 -3 0 4 -9 9 -13 9 -16 -3 -17 -8 -1
-21 -3 -29 -4 -8 -1 -12 -8 -8 -16 4 -11 1 -14 -11 -9 -11 4 -17 1 -17 -9 0
-14 -2 -14 -16 0 -11 12 -20 13 -34 6 -13 -7 -20 -6 -23 3 -4 9 -6 8 -6 -2 -1
-11 -4 -11 -16 -1 -9 8 -15 8 -15 2 0 -7 -10 -8 -31 -2 -26 8 -30 7 -24 -7 5
-16 5 -16 -12 0 -12 11 -23 13 -33 7 -9 -6 -17 -5 -22 3 -6 9 -8 8 -8 -2 0
-11 -3 -11 -15 -1 -9 8 -15 8 -15 2 0 -7 -10 -8 -30 -2 -20 6 -30 5 -30 -2 0
-7 -4 -7 -13 0 -8 7 -18 7 -27 2 -9 -6 -17 -5 -22 3 -6 9 -8 8 -8 -2 0 -11 -3
-11 -15 -1 -8 7 -15 8 -15 3 0 -4 -29 -6 -65 -3 -56 5 -65 3 -60 -10 4 -13 3
-13 -7 1 -9 10 -21 13 -38 9 -14 -4 -33 -3 -43 2 -11 6 -17 5 -17 -3 0 -9 -3
-9 -14 0 -11 9 -16 9 -22 0 -4 -8 -3 -9 4 -5 7 4 12 2 12 -3 0 -6 -5 -11 -12
-11 -9 0 -9 -3 0 -12 15 -15 15 -28 1 -28 -5 0 -7 5 -3 12 5 7 3 8 -6 3 -10
-6 -9 -11 5 -22 11 -7 14 -13 7 -13 -6 0 -9 -7 -5 -17 5 -12 3 -14 -8 -8 -9 5
-7 1 3 -10 16 -17 16 -19 0 -32 -9 -8 -12 -12 -5 -9 7 4 11 -1 11 -11 0 -10 3
-26 7 -35 4 -11 3 -18 -5 -18 -6 0 -8 5 -4 12 4 7 3 8 -4 4 -6 -4 -9 -13 -6
-21 4 -8 10 -12 15 -9 5 3 5 -6 0 -19 -6 -14 -7 -27 -5 -30 3 -3 7 -17 8 -31
2 -15 1 -25 -1 -22 -5 5 -57 -44 -72 -69 -9 -14 -11 -15 -7 -3 3 12 1 15 -9
11 -8 -3 -13 -8 -10 -12 8 -13 -26 -52 -38 -44 -7 4 -6 -1 2 -10 12 -16 12
-17 -5 -11 -10 4 -16 4 -12 0 3 -4 -1 -16 -10 -27 -9 -11 -16 -23 -15 -27 1
-4 -8 -12 -20 -19 -12 -7 -16 -12 -9 -13 10 0 10 -5 2 -20 -6 -11 -15 -18 -20
-15 -4 3 -6 -4 -3 -14 3 -13 -2 -23 -16 -31 -17 -9 -19 -15 -11 -30 7 -13 7
-21 -2 -26 -7 -5 -8 -3 -3 6 6 9 4 11 -4 6 -7 -5 -10 -11 -7 -14 3 -3 0 -12
-7 -20 -10 -13 -9 -14 3 -7 13 8 13 7 1 -8 -7 -9 -10 -17 -6 -17 4 0 2 -6 -4
-14 -9 -10 -9 -16 -1 -21 8 -5 6 -13 -5 -25 -9 -10 -14 -24 -10 -29 3 -6 2
-11 -3 -11 -4 0 -7 -17 -5 -37 1 -20 -3 -43 -10 -51 -9 -12 -9 -16 1 -20 10
-3 10 -7 0 -20 -11 -13 -11 -14 2 -7 13 8 13 7 0 -10 -11 -14 -12 -19 -2 -22
6 -3 12 -9 12 -14 0 -6 -4 -8 -8 -5 -4 2 -8 -6 -8 -19 0 -13 4 -21 10 -18 5 4
7 -1 3 -10 -3 -9 -2 -19 4 -23 7 -4 6 -10 -1 -19 -7 -9 -6 -16 5 -25 8 -7 12
-17 8 -24 -12 -19 -12 -35 1 -30 8 3 11 -5 10 -26 -3 -38 5 -70 18 -70 5 0 6
5 2 12 -4 7 -3 8 5 4 7 -5 9 -12 3 -19 -12 -17 -8 -42 6 -40 7 2 9 -4 5 -14
-5 -12 -3 -14 7 -8 10 6 12 4 7 -10 -5 -11 -1 -23 10 -32 17 -14 17 -14 -2 -9
l-20 6 20 -15 c11 -9 21 -20 21 -25 1 -6 2 -15 3 -21 0 -5 5 -7 11 -4 5 3 7 0
4 -9 -3 -9 3 -19 16 -26 11 -6 18 -15 15 -19 -3 -5 2 -11 10 -15 8 -3 15 -10
15 -16 0 -6 12 -23 27 -38 15 -15 20 -18 12 -7 -13 18 -13 19 4 6 9 -7 17 -20
17 -28 0 -8 4 -11 10 -8 5 3 10 -2 10 -12 0 -15 2 -16 10 -3 8 12 10 12 10 1
0 -8 8 -20 18 -28 9 -8 12 -12 6 -9 -7 4 -10 -4 -7 -22 7 -45 5 -65 -9 -73
-11 -7 -11 -9 0 -9 8 0 12 -6 9 -12 -2 -7 -1 -20 4 -29 5 -9 2 -26 -6 -42 -10
-19 -10 -29 -3 -33 7 -5 8 -2 3 6 -5 9 -4 11 4 6 9 -6 8 -14 -4 -33 -10 -14
-12 -22 -6 -19 7 5 11 -1 11 -14 0 -13 -4 -18 -11 -15 -8 6 -2 -9 18 -44 4 -7
290 -4 301 3 6 3 13 0 15 -6 4 -10 8 -9 16 2 9 13 11 12 11 -4 0 -20 0 -20 15
0 8 10 15 15 15 9 0 -10 138 -12 164 -2 8 3 17 1 20 -6 3 -9 7 -8 14 2 8 11
11 10 15 -5 4 -17 5 -17 6 -1 1 12 5 15 13 11 7 -4 32 -7 57 -7 33 1 50 -4 62
-18 9 -10 19 -16 23 -12 3 3 6 0 6 -7 0 -7 3 -11 6 -7 4 3 14 -2 23 -11 9 -10
12 -12 7 -5 -6 10 -4 12 8 7 9 -3 16 -12 16 -19 0 -8 8 -12 20 -10 13 2 20 -2
20 -11 0 -8 5 -12 10 -9 6 3 10 2 10 -2 0 -5 10 -10 22 -10 13 -1 28 -10 35
-19 9 -13 13 -14 13 -4 0 9 5 8 16 -6 8 -10 12 -12 8 -4 -6 12 -4 12 12 -1 10
-9 27 -15 37 -14 15 3 16 1 6 -11 -10 -12 -9 -13 5 -8 9 3 24 0 33 -7 14 -12
16 -12 8 1 -5 9 0 7 14 -4 22 -20 22 -20 15 0 -5 16 -3 15 13 -4 11 -13 28
-23 39 -22 32 4 45 0 39 -9 -6 -11 28 -7 47 5 7 4 8 3 4 -4 -5 -8 2 -12 19
-12 26 0 79 -42 68 -54 -4 -3 -1 -6 6 -6 15 0 42 -25 35 -33 -3 -2 7 -7 20
-11 14 -3 25 -12 23 -19 -1 -6 4 -11 11 -9 6 1 12 -5 12 -14 0 -8 5 -12 10 -9
6 3 10 2 10 -4 0 -6 7 -8 15 -5 9 4 18 -1 21 -11 4 -9 13 -14 21 -11 8 3 11 2
8 -3 -3 -5 5 -11 17 -13 13 -2 22 -8 21 -14 -1 -7 8 -9 24 -6 18 3 24 1 19 -7
-4 -6 -2 -11 3 -11 6 0 11 6 11 13 0 7 3 8 8 2 10 -14 55 -39 47 -26 -3 6 0
11 9 11 8 0 16 -5 18 -12 2 -6 14 -12 26 -13 11 -1 19 2 16 7 -3 4 0 8 5 8 6
0 11 -5 11 -11 0 -5 5 -7 11 -3 6 3 15 0 20 -7 5 -8 9 -9 9 -3 0 14 51 15 67
2 9 -8 15 -4 22 13 9 21 10 22 11 4 0 -15 2 -17 9 -6 6 10 10 10 16 1 5 -8 13
-6 28 7 14 12 18 13 12 3 -7 -12 -6 -13 6 -3 8 6 28 10 46 9 26 -2 30 1 21 11
-8 11 -7 12 7 7 11 -5 16 -4 12 3 -3 5 0 10 8 10 8 0 15 -5 15 -11 0 -6 5 -3
11 8 9 15 13 16 20 5 6 -10 9 -7 9 10 0 20 3 22 12 13 10 -10 16 -8 31 10 10
13 16 16 12 8 -4 -8 1 -6 9 4 9 11 16 16 16 10 0 -5 7 0 15 10 8 11 15 17 15
13 0 -3 16 9 35 28 19 20 37 35 40 35 18 0 18 1 5 10 -13 8 -13 10 2 10 17 0
45 37 40 53 -1 5 2 6 8 2 6 -3 8 -12 4 -18 -3 -7 2 -3 10 7 12 15 16 16 17 5
0 -8 4 -6 9 6 5 11 9 15 9 9 1 -7 8 -14 15 -17 10 -4 13 -1 10 8 -4 10 2 12
25 9 18 -3 31 -1 31 5 0 6 7 11 16 11 9 0 12 -5 8 -12 -4 -7 -3 -8 5 -4 6 4 9
12 6 17 -5 8 23 13 62 12 7 -1 10 4 6 10 -4 6 0 8 9 4 9 -3 25 3 36 13 15 14
22 16 25 7 4 -9 6 -9 6 1 1 7 6 10 11 7 6 -3 10 1 10 10 0 9 5 13 10 10 6 -4
18 -1 27 7 14 11 16 11 8 -2 -4 -8 2 -5 14 7 23 24 37 30 25 12 -3 -6 5 -3 20
6 14 10 23 22 19 29 -4 6 1 5 10 -3 15 -12 17 -11 17 4 0 11 5 15 15 11 8 -3
15 -1 15 4 0 5 10 14 21 21 17 9 20 8 14 -3 -3 -7 0 -5 8 4 8 10 18 14 22 10
5 -4 6 0 3 9 -5 13 1 16 33 15 21 -1 39 3 39 9 0 7 3 7 8 0 10 -14 62 -16 62
-2 0 8 3 8 8 2 4 -6 56 -10 120 -10 68 0 112 4 112 10 0 7 3 7 8 0 4 -5 14
-10 22 -10 8 0 18 5 22 10 5 6 8 4 8 -5 0 -13 1 -13 10 0 6 10 10 11 10 3 0
-7 5 -13 11 -13 5 0 7 5 3 12 -5 7 -3 8 5 3 20 -11 71 -12 71 -1 0 6 5 4 10
-4 9 -13 11 -13 20 0 8 12 10 12 10 1 0 -10 3 -11 13 -2 8 6 17 8 20 4 4 -3
27 -6 51 -7 24 -1 43 1 41 3 -3 2 2 13 10 23 14 21 10 52 -6 42 -5 -3 -9 0 -9
5 0 6 8 11 17 11 15 0 14 2 -3 16 -10 8 -14 13 -9 11 6 -3 11 6 11 19 1 13 -1
22 -5 20 -3 -2 -6 15 -6 39 0 24 3 41 7 39 4 -2 9 0 13 6 3 5 0 10 -8 10 -7 0
-14 7 -14 15 0 8 4 12 9 9 4 -3 8 -2 9 3 0 4 2 16 4 25 2 10 -2 21 -7 25 -6 3
-8 2 -5 -4 3 -5 0 -10 -8 -10 -11 0 -11 4 1 22 8 12 11 25 7 28 -3 4 0 7 7 7
7 0 23 11 36 26 13 14 24 22 24 19 0 -3 6 0 14 7 10 9 11 15 2 20 -6 5 0 8 14
8 20 0 22 2 10 10 -13 8 -13 10 1 10 9 0 20 7 23 16 3 9 11 12 18 8 8 -5 7 0
-2 11 -8 10 -10 17 -5 14 6 -3 21 6 34 19 19 21 20 24 5 19 -16 -6 -15 -4 3
12 12 10 20 21 17 24 -3 3 2 16 10 29 9 14 13 28 9 33 -5 4 -1 6 8 3 9 -4 16
-1 16 7 0 8 -7 11 -16 8 -11 -4 -10 -1 3 9 22 17 30 48 13 48 -7 0 -6 4 3 9 8
6 17 8 20 6 4 -2 7 2 7 10 0 8 -5 11 -11 8 -6 -4 -5 1 2 10 8 9 11 21 7 27 -3
5 -2 10 4 10 6 0 7 7 4 17 -5 12 -3 14 8 8 8 -5 5 2 -6 16 -15 18 -16 20 -2
10 14 -11 17 -11 18 0 0 8 1 43 2 79 0 36 6 69 12 73 7 6 6 10 -3 14 -10 4
-10 8 -1 19 9 11 9 14 0 14 -9 0 -9 5 0 21 8 15 8 19 0 15 -7 -5 -11 1 -11 14
0 14 4 19 13 14 9 -6 9 -4 0 7 -7 7 -13 26 -13 41 0 15 -6 28 -12 29 -7 0 -4
4 7 9 15 6 16 9 4 9 -15 1 -18 9 -20 64 0 15 -5 27 -10 27 -5 0 -9 7 -9 16 0
8 -4 12 -10 9 -5 -3 -10 -1 -10 4 0 6 4 11 8 11 4 0 8 9 8 19 0 14 -4 17 -12
10 -8 -7 -15 -6 -20 2 -4 8 -3 9 4 5 7 -4 12 -1 12 9 0 9 -4 13 -10 10 -6 -4
-10 5 -10 20 0 19 -4 26 -14 22 -10 -4 -12 0 -9 14 3 11 0 19 -7 19 -7 0 -10
7 -6 16 3 8 2 13 -3 10 -4 -3 -13 6 -19 19 -7 14 -17 25 -24 25 -10 0 -10 2 0
9 10 6 7 10 -13 15 -22 6 -25 9 -15 21 10 12 9 15 -8 15 -12 0 -23 9 -27 21
-4 12 -12 18 -21 15 -7 -3 -13 -2 -11 2 2 8 -39 52 -45 47 -1 -2 -3 7 -3 20 0
13 3 21 7 19 4 -2 9 0 13 6 3 5 2 10 -3 10 -14 0 -20 32 -12 55 4 11 3 26 -2
33 -8 9 -5 12 8 13 18 0 18 1 -1 9 -11 5 -15 9 -10 9 6 1 11 12 11 26 1 14 -1
23 -5 21 -4 -3 -7 15 -6 38 0 34 3 42 15 38 12 -5 13 -3 3 10 -7 8 -10 18 -6
21 3 4 1 7 -4 7 -6 0 -14 -6 -16 -12 -4 -9 -6 -8 -6 2 -1 17 -61 22 -61 5 0
-5 -5 -3 -10 5 -8 13 -10 12 -10 -3 0 -17 -1 -17 -17 -1 -9 9 -19 12 -20 7 -2
-6 -19 -7 -44 -3 -34 6 -39 5 -34 -8 4 -12 1 -11 -16 4 -22 19 -22 19 -16 -1
6 -17 5 -18 -5 -4 -9 10 -21 13 -38 9 -14 -4 -30 -3 -37 2 -7 5 -14 5 -18 -2
-4 -7 -12 -7 -26 0 -15 9 -19 7 -20 -7 0 -16 -1 -16 -9 2 -6 13 -9 15 -9 5 -1
-13 -2 -13 -11 0 -6 9 -10 10 -10 3 0 -8 -9 -9 -29 -3 -15 4 -34 4 -42 -1 -8
-5 -16 -3 -21 4 -5 8 -8 5 -9 -8 l0 -20 -9 20 c-5 11 -9 14 -9 7 -1 -9 -6 -10
-20 -2 -26 13 -34 13 -25 -2 5 -9 2 -9 -9 1 -12 9 -17 10 -17 2 0 -7 -5 -9
-12 -5 -6 4 -29 6 -50 6 -24 -1 -37 2 -33 8 3 6 -1 10 -10 10 -10 0 -13 5 -9
13 5 7 0 6 -11 -3 -11 -9 -16 -10 -11 -2 4 7 2 12 -4 12 -6 0 -8 5 -4 12 5 8
0 9 -14 6 -16 -4 -22 -2 -22 9 0 9 -6 13 -15 9 -8 -3 -14 -2 -14 2 3 19 -2 23
-16 12 -12 -10 -15 -10 -15 4 0 9 -3 15 -7 15 -20 -3 -34 2 -28 10 3 5 0 13
-6 17 -8 4 -9 3 -5 -4 4 -7 2 -12 -3 -12 -6 0 -11 5 -11 11 0 5 -4 8 -9 4 -5
-3 -13 0 -17 6 -4 8 -9 7 -16 -2 -7 -11 -9 -9 -5 7 3 17 0 20 -24 16 -23 -3
-29 0 -30 14 0 12 -3 14 -6 6 -4 -10 -10 -9 -30 4 -14 9 -23 12 -19 6 3 -6 -4
-5 -19 1 -14 7 -25 15 -25 20 0 4 -5 7 -11 7 -5 0 -7 -6 -4 -12 4 -7 -1 -4 -9
6 -9 11 -16 15 -16 9 0 -14 -37 -5 -43 10 -2 7 -23 12 -46 11 -22 0 -41 4 -41
9 0 5 -7 7 -15 3 -9 -3 -15 0 -15 9 0 8 -4 15 -10 15 -5 0 -10 7 -10 16 0 11
-5 14 -17 10 -10 -4 -14 -4 -11 0 8 7 -36 54 -52 54 -5 0 -10 5 -10 11 0 6 -7
8 -16 5 -15 -6 -15 -4 -3 11 9 11 10 14 2 9 -7 -4 -13 -3 -13 3 0 5 -9 8 -20
6 -11 -2 -18 0 -15 5 3 5 -4 14 -16 20 -16 9 -20 9 -14 0 5 -8 0 -7 -14 2 -12
7 -21 17 -21 22 0 4 -9 6 -20 3 -14 -4 -20 0 -20 11 0 15 -2 15 -10 2 -7 -11
-10 -11 -10 -2 0 7 -4 10 -10 7 -5 -3 -10 -1 -10 4 0 6 -5 11 -11 11 -5 0 -7
-4 -4 -10 3 -6 -1 -7 -9 -4 -9 3 -16 11 -16 18 0 6 -5 4 -10 -4 -9 -13 -10
-13 -10 0 0 13 -1 13 -10 0 -5 -8 -10 -10 -10 -4 0 7 -7 15 -16 18 -8 3 -12 2
-9 -4 3 -6 1 -10 -4 -10 -6 0 -11 5 -11 10 0 7 -6 7 -18 1 -10 -5 -24 -6 -32
-1 -7 4 -22 6 -33 4 -11 -2 -25 0 -31 5 -6 5 -17 6 -23 4z m17 -13 c0 -5 -5
-10 -11 -10 -5 0 -7 5 -4 10 3 6 8 10 11 10 2 0 4 -4 4 -10z"/>
<path d="M428 2773 c7 -3 16 -2 19 1 4 3 -2 6 -13 5 -11 0 -14 -3 -6 -6z"/>
</g>
</svg>
